<?xml version="1.0" encoding="UTF-8" standalone="no"?>
<!-- Created with Inkscape (http://www.inkscape.org/) -->

<svg
   xmlns:dc="http://purl.org/dc/elements/1.1/"
   xmlns:cc="http://creativecommons.org/ns#"
   xmlns:rdf="http://www.w3.org/1999/02/22-rdf-syntax-ns#"
   xmlns:svg="http://www.w3.org/2000/svg"
   xmlns="http://www.w3.org/2000/svg"
   version="1.1"
   width="1000"
   height="1000"
   id="svg2">
  <defs
     id="defs4" />
  <metadata
     id="metadata7">
    <rdf:RDF>
      <cc:Work
         rdf:about="">
        <dc:format>image/svg+xml</dc:format>
        <dc:type
           rdf:resource="http://purl.org/dc/dcmitype/StillImage" />
        <dc:title></dc:title>
      </cc:Work>
    </rdf:RDF>
  </metadata>
  <g
     transform="translate(0,-52.362153)"
     id="layer1">
    <g
       id="g3005"
       style="fill:#666666;fill-opacity:0;stroke:none">
      <path
         d="m 265.5629,442.23453 569.28876,-236.08124 0,612.83709 L 265.5629,637.1755 z"
         id="path3017"
         style="fill:#e9e9ff;fill-rule:evenodd;stroke:none" />
      <path
         d="m 193.94929,393.7427 0,213.8453 71.61361,29.5875 0,-194.94097 z"
         id="path3007"
         style="fill:#353564;fill-rule:evenodd;stroke:none" />
      <path
         d="M 193.94929,393.7427 769.73624,-77.158808 834.85166,206.15329 265.5629,442.23453 z"
         id="path3009"
         style="fill:#4d4d9f;fill-rule:evenodd;stroke:none" />
      <path
         d="M 193.94929,607.588 769.73624,771.53974 834.85166,818.99038 265.5629,637.1755 z"
         id="path3015"
         style="fill:#afafde;fill-rule:evenodd;stroke:none" />
      <path
         d="m 769.73624,-77.158808 0,848.698548 65.11542,47.45064 0,-612.83709 z"
         id="path3013"
         style="fill:#d7d7ff;fill-rule:evenodd;stroke:none" />
      <path
         d="m 193.94929,393.7427 575.78695,-470.901508 0,848.698548 L 193.94929,607.588 z"
         id="path3011"
         style="fill:#8686bf;fill-rule:evenodd;stroke:none" />
    </g>
    <path
       d="m 8.0812204,138.59252 2.0203046,850.54844 c 2.020305,36.36554 32.324882,50.50764 32.324882,50.50764 l 869.741343,-1.0102 c 0,0 61.61931,9.0914 78.7919,-40.40607 l -1.01016,-883.88347 c 0,0 7.07107,-50.50763 -32.32488,-55.558393 l -907.116983,0 C 6.060915,76.973213 8.0812204,138.59252 8.0812204,138.59252 z"
       id="path3019"
       style="color:#000000;fill:#ff7f2a;fill-opacity:1;fill-rule:nonzero;stroke:#ffffff;stroke-width:10;stroke-linecap:butt;stroke-linejoin:round;stroke-miterlimit:4;stroke-opacity:1;stroke-dasharray:none;stroke-dashoffset:0;marker:none;visibility:visible;display:inline;overflow:visible;enable-background:accumulate" />
    <path
       d="m 74.751288,927.26902 6.060916,-802.06112 420.223456,-2.02031 -54.54824,175.76654 -228.29447,2.02031 0,161.62441 186.37315,-1e-5 -34.85027,149.50258 -144.00154,0.75572 -0.99529,314.28572 z"
       transform="translate(0,52.362153)"
       id="path3789"
       style="color:#000000;fill:#ffffff;fill-opacity:1;fill-rule:nonzero;stroke:#000000;stroke-width:1;stroke-linecap:butt;stroke-linejoin:miter;stroke-miterlimit:4;stroke-opacity:1;stroke-dasharray:none;stroke-dashoffset:0;marker:none;visibility:visible;display:inline;overflow:visible;enable-background:accumulate" />
    <path
       d="m 963.68553,129.24851 -375.77675,2.0203 c 0,0 -227.45764,356.06391 -195.13276,804.57164 L 824.28448,935.35024 868.73119,799.9898 565.68543,797.96949 C 537.40116,541.39074 709.12709,248.4465 709.12709,248.4465 l 197.9899,1e-5 z"
       transform="translate(0,52.362153)"
       id="path3791"
       style="color:#000000;fill:#ffffff;fill-opacity:1;fill-rule:nonzero;stroke:#000000;stroke-width:1;stroke-linecap:butt;stroke-linejoin:miter;stroke-miterlimit:4;stroke-opacity:1;stroke-dasharray:none;stroke-dashoffset:0;marker:none;visibility:visible;display:inline;overflow:visible;enable-background:accumulate" />
  </g>
</svg>
